<?xml version="1.0" standalone="no"?>
<!DOCTYPE svg PUBLIC "-//W3C//DTD SVG 20010904//EN"
 "http://www.w3.org/TR/2001/REC-SVG-20010904/DTD/svg10.dtd">
<svg version="1.0" xmlns="http://www.w3.org/2000/svg"
 width="3000.000000pt" height="2000.000000pt" viewBox="0 0 3000.000000 2000.000000"
 preserveAspectRatio="xMidYMid meet">
<metadata>
Created by potrace 1.16, written by Peter Selinger 2001-2019
</metadata>
<g transform="translate(0.000000,2000.000000) scale(0.100000,-0.100000)"
fill="#000000" stroke="none">
<path d="M0 19212 c0 -429 3 -814 7 -856 l6 -77 46 3 46 3 3 60 c4 91 16 99
22 15 l5 -75 85 -5 85 -5 -55 -8 c-30 -4 -68 -8 -85 -9 -30 -3 -30 -3 -33 -70
-2 -38 -7 -68 -12 -68 -5 0 -10 30 -12 68 l-3 67 -47 3 -46 3 -4 -108 c-2 -59
-3 -801 -2 -1648 0 -847 0 -2001 0 -2565 -3 -4006 7 -13046 15 -13048 12 -5
12 -49 0 -56 -5 -3 -9 -192 -10 -421 l-2 -415 11141 0 c9895 0 11140 2 11141
15 3 28 4 33 12 41 4 4 7 -7 7 -24 l0 -32 3845 0 3845 0 0 9995 0 9995 -4160
0 -4160 0 0 -39 0 -40 53 -5 c28 -4 77 -8 107 -9 32 -2 15 -4 -40 -5 -52 -1
-100 -6 -106 -10 -6 -4 -15 -52 -20 -107 l-9 -100 -3 94 c-1 52 -7 100 -12
106 -5 6 -49 12 -102 14 -107 2 -131 10 -37 12 147 3 153 6 143 57 l-6 32
-10824 0 -10824 0 0 -778z m5230 2 c17 -129 19 -134 45 -134 43 0 85 -12 85
-25 0 -7 9 -15 20 -18 11 -3 23 -13 27 -24 3 -10 12 -22 20 -26 7 -4 13 -19
13 -33 0 -30 23 -40 128 -56 84 -12 78 -21 -24 -33 -90 -11 -101 -18 -109 -64
-4 -25 -12 -41 -21 -41 -8 0 -14 -9 -14 -21 0 -12 -8 -23 -20 -26 -11 -3 -20
-11 -20 -18 0 -8 -16 -19 -35 -25 -31 -10 -35 -16 -35 -45 0 -24 -7 -39 -25
-52 -20 -15 -27 -32 -35 -92 -6 -41 -12 -77 -14 -79 -3 -2 -7 16 -10 40 -20
160 -31 218 -40 220 -6 0 -16 2 -21 2 -6 1 -22 13 -36 26 -46 44 -69 87 -69
125 0 32 -3 36 -20 31 -11 -3 -29 -9 -40 -12 -12 -3 -30 3 -46 15 -15 12 -41
21 -58 22 -17 0 -40 4 -51 8 -21 8 -3 12 130 27 69 7 95 18 95 39 0 8 5 15 10
15 6 0 10 6 10 14 0 11 64 88 72 86 2 -1 11 2 20 5 16 6 27 54 44 188 3 27 7
47 10 45 2 -3 8 -40 14 -84z m24760 -1096 c-1 -198 -2 -221 -15 -204 -14 19
-15 19 -15 -7 0 -43 -17 -31 -30 21 -22 88 -14 297 13 314 9 6 8 8 -2 8 -11 0
-11 4 2 18 10 10 14 22 10 26 -4 4 0 12 10 17 9 6 15 14 12 20 -4 5 -1 9 4 9
8 0 11 -72 11 -222z m-7770 -222 c54 -35 84 -103 77 -168 -21 -173 -237 -223
-334 -79 -27 40 -32 135 -9 179 50 96 176 128 266 68z m-3005 -891 c52 -51 14
-140 -59 -138 -62 2 -97 52 -76 109 23 58 92 73 135 29z m-15041 -621 c46 -45
19 -116 -46 -122 -29 -2 -40 2 -57 24 -26 34 -27 54 0 88 24 30 78 36 103 10z
m20995 -279 c74 -38 57 -145 -25 -161 -92 -17 -140 108 -61 157 38 23 49 23
86 4z m-17959 -485 c65 -65 -30 -161 -97 -98 -46 43 -16 118 47 118 17 0 39
-9 50 -20z m7424 -701 c53 -41 18 -129 -51 -129 -32 0 -73 42 -73 75 0 33 41
75 73 75 13 0 36 -9 51 -21z m12811 -204 c51 -50 18 -135 -52 -135 -46 0 -68
13 -83 50 -14 34 0 83 29 100 31 18 81 11 106 -15z m-4803 -952 c37 -42 28
-101 -19 -122 -37 -17 -62 -13 -88 14 -31 30 -33 77 -5 105 26 26 91 27 112 3z
m7148 -1052 c48 -34 72 -81 67 -132 -10 -112 -120 -172 -217 -118 -48 27 -70
66 -70 124 0 98 69 162 160 149 19 -3 46 -13 60 -23z m-25969 -269 c48 -40 17
-122 -46 -122 -40 0 -68 30 -68 72 0 36 32 68 68 68 13 0 33 -8 46 -18z m1716
-526 c23 -20 28 -32 28 -71 0 -39 -5 -51 -28 -71 -55 -48 -147 -21 -162 47
-20 91 91 156 162 95z m21858 -21 c14 -13 25 -36 25 -50 0 -33 -42 -75 -75
-75 -33 0 -75 42 -75 75 0 33 42 75 75 75 14 0 37 -11 50 -25z m-9143 -1049
c13 -7 18 -23 18 -53 0 -35 -5 -45 -29 -62 -73 -52 -151 50 -89 116 18 19 28
22 52 17 17 -4 38 -12 48 -18z m1949 -915 c32 -33 37 -67 14 -110 -17 -33 -33
-41 -84 -41 -64 0 -103 63 -76 126 26 62 97 74 146 25z m-7406 -1020 c17 -10
143 -89 280 -176 362 -229 472 -295 487 -295 8 0 23 7 34 16 10 8 12 13 4 9
-8 -4 -6 1 5 9 10 9 34 22 52 28 39 14 48 39 59 163 6 73 22 142 23 105 3 -48
23 -200 32 -235 7 -28 16 -41 29 -42 22 -2 60 -33 60 -49 0 -7 6 -14 14 -17
21 -8 27 -47 8 -48 -10 -1 1 -5 23 -10 22 -4 89 -3 150 2 198 17 1812 183
1888 194 24 3 37 1 37 -6 0 -11 -212 -664 -227 -699 -3 -8 -7 -20 -8 -26 -8
-38 -88 -264 -92 -260 -4 4 107 354 258 811 27 83 49 154 49 158 0 5 -21 6
-47 3 -27 -3 -133 -15 -238 -26 -104 -11 -230 -24 -280 -30 -49 -6 -198 -22
-330 -36 -132 -13 -382 -41 -555 -60 -401 -44 -418 -47 -309 -60 98 -12 84
-20 -56 -34 -148 -15 -153 -16 -160 -52 -4 -16 -16 -39 -26 -49 -10 -10 -19
-27 -19 -37 0 -37 -21 -42 -59 -16 -37 25 -57 31 -47 15 10 -16 -18 -19 -36
-4 -12 11 -18 11 -24 2 -5 -8 -3 -10 6 -4 10 6 12 4 7 -9 -7 -19 22 -124 159
-581 47 -154 87 -289 90 -300 4 -13 3 -17 -4 -10 -5 6 -63 178 -127 384 -64
205 -123 387 -130 405 l-13 31 -6 -45 c-3 -25 -8 -71 -11 -103 -4 -32 -9 -56
-13 -52 -3 3 -11 58 -18 123 -9 92 -15 119 -29 127 -10 5 -32 20 -50 32 -19
12 -36 18 -40 15 -3 -3 -8 4 -12 16 -3 12 -9 22 -14 22 -11 0 -40 56 -33 63 8
8 -37 16 -142 27 -93 10 -113 14 -103 24 5 5 67 14 103 15 11 1 17 3 14 6 -5
5 -522 85 -651 100 -31 4 -59 11 -62 15 -6 9 -9 9 330 -36 410 -54 497 -63
516 -51 15 10 15 12 0 28 -9 9 -144 101 -301 204 -487 320 -530 348 -530 352
0 4 33 -14 85 -46z"/>
</g>
</svg>
