<?xml version="1.0" encoding="utf-8"?>
<!-- Generator: Adobe Illustrator 24.3.0, SVG Export Plug-In . SVG Version: 6.00 Build 0)  -->
<svg version="1.1" id="Layer_1" xmlns="http://www.w3.org/2000/svg" xmlns:xlink="http://www.w3.org/1999/xlink" x="0px" y="0px"
	 viewBox="0 0 2400 1700" style="enable-background:new 0 0 2400 1700;" xml:space="preserve">
<path d="M962.9,557.3c-11.2,1.1-21.6,2.6-32,3c-45.7,1.9-87.2-11.5-124.6-37c-26.5-18.1-46-43.2-63.4-69.9
	c-15.8-24.2-29.3-49.5-38.8-76.9c-1.1-3.1-6.1-4.5-9.9-3c-2,0.8-4.3,1.5-6.4,1.5c-53.8,0.1-107.6,0.1-161.5,0.1c-2,0-3.9,0-5.8,0
	c-1.6,7.9-1.6,7.9,5.7,9.4c16.3,3.5,32.5,7.4,46.4,17.3c21.6,15.4,32.2,36.7,31.5,62.8c-0.3,9.2-3.9,18.6-7.4,27.3
	c-30.7,76.8-84.8,129.1-165.2,150.2c-61.9,16.3-121.2,5.8-175.4-29.2c-1.6-1-3.1-3.6-3-5.4c5.4-140.1,69.3-244.8,191.9-312.6
	c54.1-29.9,113.3-42.2,175-40.5C783.6,259,924.1,375.4,958.7,535C960.2,542,961.3,549,962.9,557.3z"/>
<path d="M255.1,648.1c14.4,2.8,28.6,6,43,8.4c36.7,5.9,73.5,7.1,110.5,4c43.4-3.6,84.9-14.2,124.1-33.3c9.5-4.7,18.5-10.5,27.7-15.9
	c7.1-4.2,8.6-4.5,14.3,1.5c8.5,8.9,15.8,19,24.6,27.5c5.7,5.6,6,11.6,5.8,18.5c-1.2,50.4-2.1,100.9-3.3,151.3
	c-0.7,29.1-2.2,58.3-9,86.8c-5,21.3-12.9,41.2-28.9,57.1c-6.9,6.9-13.5,10-24.1,7.6c-110-24.2-191.9-85.6-245.8-184.3
	c-21.4-39.1-33.6-81.3-38.8-125.6c-0.1-0.8-0.2-1.7-0.2-2.5C254.9,648.9,255.1,648.4,255.1,648.1z"/>
<path d="M827.6,894.9c-11.3,7.5-21.6,14.9-32.3,21.5c-39.8,24.4-82.8,40.1-128.9,47.4c-2,0.3-4.6-0.5-6.4-1.7
	c-19.4-12.5-29.1-31.4-34.1-53.2c-4.9-21.2-5.8-42.9-5.9-64.5c-0.4-67.8-0.4-135.6-0.2-203.5c0.2-68.8,0.8-137.6,1.3-206.4
	c0-0.7,0.1-1.3,0.1-2c0.4-0.2,0.9-0.4,1.3-0.5C690.7,586.1,759,740.2,827.6,894.9z"/>
<path d="M1861.9,768.2c-49.7,0-99.2,0-149.1,0c-0.1-1.4-0.3-2.8-0.5-4.4c0.9-0.2,1.5-0.5,2.1-0.5c10.5-0.9,20.7-3.1,30.1-8.2
	c12.3-6.6,19.2-16.8,20.3-30.6c1-12.1,2.1-24.2,2.1-36.4c0.3-68.3,0.3-136.6,0.4-205c0-1.4-0.2-2.8-1.1-4.3
	c-5.9,13.3-11.8,26.7-17.8,40c-28.3,63-56.7,125.9-84.8,188.9c-7.2,16.1-13.6,32.5-20.4,48.8c-0.7,1.7-2.1,3-3.2,4.5
	c-1.1-1.5-2.5-3-3.2-4.6c-26-59.4-51.9-118.9-78-178.3c-13.2-30-26.7-59.9-40-89.8c-0.4-0.9-0.8-1.7-1.8-3.6
	c-0.3,2.2-0.5,3.3-0.5,4.3c-0.2,33-0.5,66-0.7,99c-0.2,30.2-0.4,60.3-0.3,90.5c0.1,12.5,0.6,25,1.6,37.4c2.1,26.7,15,40.6,42.3,46.2
	c2,0.4,3.9,0.7,5.9,1.1c3.3,0.6,3.3,0.6,3.2,4.8c-37.8,0-75.5,0-113.2,0c-1.2-3.3,0-4.8,3.2-5.1c1.6-0.2,3.2-0.9,4.8-1.3
	c20.7-5.1,33.5-18.6,37.4-39.2c3-15.8,4.9-32,5.2-48c1.2-51.5,1.5-102.9,2-154.4c0.1-7-0.1-14-0.5-21c-1-19.1-11.7-32.4-30.1-37.6
	c-2.9-0.8-5.9-1.2-8.7-2.2c-1.7-0.6-3-2.2-4.4-3.3c1.6-0.7,3.2-2,4.7-2c25.3-0.1,50.7,0.4,76-0.4c9.5-0.3,13.9,2.6,17.7,11.5
	c31.8,73.6,64.2,146.9,96.5,220.3c0.7,1.5,1.4,3,2.5,5.3c1-2,1.9-3.5,2.5-5c33.6-75.7,67.2-151.4,100.7-227.2c1.5-3.4,3-4.7,6.9-4.7
	c29.2,0.2,58.3,0.1,88,0.1c0.1,1.5,0.3,2.9,0.4,4.4c-4.1,0.5-8,0.8-11.7,1.5c-19,3.7-30,16.1-31.2,36.6c-1.3,21.4-2.3,42.9-2.5,64.4
	c-0.4,41-0.2,82,0,123c0.1,14.6,0.8,29.3,1.3,43.9c0.4,12.7,6.9,21.5,17.5,27.8c7.7,4.6,16,7.4,24.9,8
	C1861.1,763.5,1863.2,764.1,1861.9,768.2z"/>
<path d="M779.9,553.2c30.5,10.8,60.8,16.5,91.8,19c30.9,2.5,61.7,2.7,92.5-0.2c15.2,68.5-19.1,197.5-66.3,249.7
	C858.6,732.3,819.4,643.2,779.9,553.2z"/>
<path d="M2130.2,455c0,26.6,0,53.2,0,79.8c-3.5,1.3-5.1,0.2-6.4-3.2c-9-22.4-20.9-42.8-40.1-58.1c-22.7-18.2-48.1-22-75.2-12.1
	c-26.1,9.5-37.5,32.5-37.1,58.1c0.3,23.8,13.2,39.7,33.3,49.4c17.6,8.5,36.4,14.3,54.7,21.5c14.4,5.6,29.4,10.1,42.9,17.3
	c54.7,28.9,53.2,97.5,23.5,129.7c-15.3,16.6-34.2,26.3-56.1,30.3c-34.8,6.5-69.2,5.7-102.9-6.4c-5.1-1.8-10-4.6-14.8-7.2
	c-2.7-1.4-4.7-1.3-6.5,1.1c-2.8,3.5-5.5,7.1-8.6,10.4c-1.2,1.3-3.2,1.8-6.2,3.4c0-30.3,0-58.8,0-87.8c3.3-1.5,4.1,1.2,5.2,4
	c9.6,24,22.4,46.1,43.3,61.8c27.4,20.6,65.5,24.8,95,7.4c29.1-17.2,39-57.5,21-84.5c-6.7-10.1-16.1-17-27.1-21.3
	c-19.9-7.9-40.3-14.6-60.3-22.4c-12.3-4.8-25.4-9-36.2-16.3c-30.5-20.4-44.5-49.5-38.4-86.3c6.1-36.8,29.3-59.1,64.1-68.9
	c34.7-9.8,69.2-7.9,102.3,7.7c3.6,1.7,6.7,4.3,10.3,6c1.3,0.6,4,0.4,4.9-0.6c3.1-3.2,5.5-7.1,8.5-10.4c1.5-1.7,3.8-2.6,5.7-3.8
	C2129.4,454,2129.8,454.5,2130.2,455z"/>
<path d="M1396.2,455.7c0,34.2,0,66.4,0,98.8c-3.9,1.8-5.4,0.5-6.6-3.4c-10.2-32.3-28.3-59-57.1-77.6c-51-32.9-115.4-21.1-151.9,27.4
	c-21,27.9-31.7,59.7-34.8,94.3c-3,33.5,1.4,65.9,16.2,96.3c19.6,40.1,50.8,65.7,96,70.7c45.2,5,81.1-13.2,109.1-48
	c10.7-13.3,18.2-28.3,22.2-44.8c0.9-3.7,2.5-4.7,5.7-3.7c0,31.8,0,63.5,0,95.1c-4.2,1.7-6.3,0.5-8.6-2.4c-3.7-4.9-8.1-9.3-12.2-13.9
	c-2.1-2.3-4.2-2.6-7-0.8c-39.3,24.9-82.6,29.8-127.7,25.2c-31.3-3.2-60.6-12.6-86.5-30.9c-34.4-24.3-53.8-58.1-60-99.3
	c-7.1-46.8,3.4-89.6,31.6-127.8c23.9-32.4,56.8-50.9,95.6-58.8c44.9-9.2,88.8-5.6,130.6,14.3c5.8,2.8,11.3,6.3,16.8,9.8
	c2.9,1.9,5.1,1.9,7.5-0.6c4.6-5,9.1-10.2,13.9-15C1390.7,458.6,1393.1,457.7,1396.2,455.7z"/>
</svg>
