<?xml version="1.0" encoding="utf-8"?>
<!-- Generator: Adobe Illustrator 24.3.0, SVG Export Plug-In . SVG Version: 6.00 Build 0)  -->
<svg version="1.1" id="Layer_1" xmlns="http://www.w3.org/2000/svg" xmlns:xlink="http://www.w3.org/1999/xlink" x="0px" y="0px"
	 viewBox="0 0 1404.8 534" style="enable-background:new 0 0 1404.8 534;" xml:space="preserve">
<path d="M171.5,114c-5,0-8.3-3.3-8.3-8.3v-8.3H155c-5,0-8.3-3.3-8.3-8.3V81H64v165h82.7v-8.3c0-4.9,3.3-8.3,8.3-8.3h8.3v-8.3
	c0-4.9,3.3-8.3,8.3-8.3h8.3v-99H171.5z M163.3,122.3v82.5c0,4.9-3.3,8.3-8.3,8.3h-8.3v8.3c0,4.9-3.3,8.3-8.3,8.3H88.8
	c-5,0-8.3-3.3-8.3-8.3V105.8c0-4.9,3.3-8.3,8.3-8.3h49.6c5,0,8.3,3.3,8.3,8.3v8.3h8.3C160,114,163.3,117.3,163.3,122.3z"/>
<path d="M205,81v165h16.5V81H205z"/>
<path d="M345.9,81v24.8c0,4.9-3.3,8.3-8.3,8.3h-8.3v41.3c0,4.9-3.3,8.3-8.3,8.3h-8.3v41.3c0,4.9-3.3,8.3-8.3,8.3s-8.3-3.3-8.3-8.3
	v-41.3H288c-5,0-8.3-3.3-8.3-8.3V114h-8.3c-5,0-8.3-3.3-8.3-8.3V81h-16.5v33h8.3c5,0,8.3,3.3,8.3,8.3v41.3h8.3c5,0,8.3,3.3,8.3,8.3
	V213h8.3c5,0,8.3,3.3,8.3,8.3V246h16.5v-24.8c0-4.9,3.3-8.3,8.3-8.3h8.3v-41.3c0-4.9,3.3-8.3,8.3-8.3h8.3v-41.3
	c0-4.9,3.3-8.3,8.3-8.3h8.3V81H345.9z"/>
<path d="M404.2,138.8v-33c0-4.9,3.3-8.3,8.3-8.3h74.5V81h-99.3v165h99.3v-16.5h-74.5c-5,0-8.3-3.3-8.3-8.3v-49.5
	c0-4.9,3.3-8.3,8.3-8.3h57.9V147h-57.9C407.5,147,404.2,143.7,404.2,138.8z"/>
<path d="M603.1,97.5c-5,0-8.3-3.3-8.3-8.3V81h-82.7v165h16.5v-57.8c0-4.9,3.3-8.3,8.3-8.3h16.5c5,0,8.3,3.3,8.3,8.3v8.3h8.3
	c5,0,8.3,3.3,8.3,8.3v24.8h8.3c5,0,8.3,3.3,8.3,8.3v8.3h16.5v-16.5h-8.3c-5,0-8.3-3.3-8.3-8.3v-24.8h-8.3c-5,0-8.3-3.3-8.3-8.3
	s3.3-8.3,8.3-8.3h8.3v-8.3c0-4.9,3.3-8.3,8.3-8.3h8.3v-66H603.1z M594.8,105.8v49.5c0,4.9-3.3,8.3-8.3,8.3h-49.6
	c-5,0-8.3-3.3-8.3-8.3v-49.5c0-4.9,3.3-8.3,8.3-8.3h49.6C591.5,97.5,594.8,100.8,594.8,105.8z"/>
<path d="M769,130.5V114h-8.3c-5,0-8.3-3.3-8.3-8.3v-8.3h-8.3c-5,0-8.3-3.3-8.3-8.3V81h-66.2v8.3c0,4.9-3.3,8.3-8.3,8.3h-8.3v8.3
	c0,4.9-3.3,8.3-8.3,8.3h-8.3v99h8.3c5,0,8.3,3.3,8.3,8.3v8.3h8.3c5,0,8.3,3.3,8.3,8.3v8.3h66.2v-8.3c0-4.9,3.3-8.3,8.3-8.3
	c5,0,8.3,3.3,8.3,8.3v8.3H769v-82.5h-66.2V180h41.4c5,0,8.3,3.3,8.3,8.3v16.5c0,4.9-3.3,8.3-8.3,8.3h-8.3v8.3c0,4.9-3.3,8.3-8.3,8.3
	H678c-5,0-8.3-3.3-8.3-8.3V213h-8.3c-5,0-8.3-3.3-8.3-8.3v-82.5c0-4.9,3.3-8.3,8.3-8.3h8.3v-8.3c0-4.9,3.3-8.3,8.3-8.3h49.6
	c5,0,8.3,3.3,8.3,8.3v8.3h8.3c5,0,8.3,3.3,8.3,8.3v8.3H769z"/>
<path d="M810.6,138.8v-33c0-4.9,3.3-8.3,8.3-8.3h74.5V81H794v165h99.3v-16.5h-74.5c-5,0-8.3-3.3-8.3-8.3v-49.5
	c0-4.9,3.3-8.3,8.3-8.3h57.9V147h-57.9C813.9,147,810.6,143.7,810.6,138.8z"/>
<path d="M1017.8,81v107.3c0,4.9-3.3,8.3-8.3,8.3c-5,0-8.3-3.3-8.3-8.3V180H993c-5,0-8.3-3.3-8.3-8.3V147h-8.3c-5,0-8.3-3.3-8.3-8.3
	v-8.3h-8.3c-5,0-8.3-3.3-8.3-8.3V97.5h-8.3c-5,0-8.3-3.3-8.3-8.3V81h-16.5v165h16.5V138.8c0-4.9,3.3-8.3,8.3-8.3s8.3,3.3,8.3,8.3
	v8.3h8.3c5,0,8.3,3.3,8.3,8.3V180h8.3c5,0,8.3,3.3,8.3,8.3v8.3h8.3c5,0,8.3,3.3,8.3,8.3v24.8h8.3c5,0,8.3,3.3,8.3,8.3v8.3h16.5V81
	H1017.8z"/>
<path d="M1191.8,130.5V114h-8.3c-5,0-8.3-3.3-8.3-8.3v-8.3h-8.3c-5,0-8.3-3.3-8.3-8.3V81h-66.2v8.3c0,4.9-3.3,8.3-8.3,8.3h-8.3v8.3
	c0,4.9-3.3,8.3-8.3,8.3h-8.3v99h8.3c5,0,8.3,3.3,8.3,8.3v8.3h8.3c5,0,8.3,3.3,8.3,8.3v8.3h66.2v-8.3c0-4.9,3.3-8.3,8.3-8.3h8.3v-8.3
	c0-4.9,3.3-8.3,8.3-8.3h8.3v-16.5h-16.5v8.3c0,4.9-3.3,8.3-8.3,8.3h-8.3v8.3c0,4.9-3.3,8.3-8.3,8.3h-49.6c-5,0-8.3-3.3-8.3-8.3V213
	h-8.3c-5,0-8.3-3.3-8.3-8.3v-82.5c0-4.9,3.3-8.3,8.3-8.3h8.3v-8.3c0-4.9,3.3-8.3,8.3-8.3h49.6c5,0,8.3,3.3,8.3,8.3v8.3h8.3
	c5,0,8.3,3.3,8.3,8.3v8.3H1191.8z"/>
<path d="M1233.5,138.8v-33c0-4.9,3.3-8.3,8.3-8.3h74.4V81h-99.3v165h99.3v-16.5h-74.4c-5,0-8.3-3.3-8.3-8.3v-49.5
	c0-4.9,3.3-8.3,8.3-8.3h57.9V147h-57.9C1236.8,147,1233.5,143.7,1233.5,138.8z"/>
</svg>
