<?xml version="1.0" encoding="utf-8"?>
<!-- Generator: Adobe Illustrator 24.3.0, SVG Export Plug-In . SVG Version: 6.00 Build 0)  -->
<svg version="1.1" id="Layer_1" xmlns="http://www.w3.org/2000/svg" xmlns:xlink="http://www.w3.org/1999/xlink" x="0px" y="0px"
	 viewBox="0 0 671.7 353.7" style="enable-background:new 0 0 671.7 353.7;" xml:space="preserve">
<style type="text/css">
	.st0{fill:url(#SVGID_1_);}
	.st1{fill:#999999;}
	.st2{clip-path:url(#SVGID_3_);}
	.st3{clip-path:url(#SVGID_4_);}
	.st4{clip-path:url(#SVGID_5_);}
	.st5{clip-path:url(#SVGID_7_);}
	.st6{clip-path:url(#SVGID_8_);}
</style>
<g>
	
		<radialGradient id="SVGID_1_" cx="366.6745" cy="183.7626" r="242.4347" fx="605.5804" fy="224.9762" gradientUnits="userSpaceOnUse">
		<stop  offset="0.1616" style="stop-color:#3865B7"/>
		<stop  offset="0.3892" style="stop-color:#2D7FA0"/>
		<stop  offset="0.9639" style="stop-color:#14BD69"/>
		<stop  offset="0.9699" style="stop-color:#20A182"/>
		<stop  offset="0.977" style="stop-color:#2A8799"/>
		<stop  offset="0.9843" style="stop-color:#3274AA"/>
		<stop  offset="0.9918" style="stop-color:#3769B4"/>
		<stop  offset="1" style="stop-color:#3865B7"/>
	</radialGradient>
	<path class="st0" d="M259.3,220c3.2,0,6.3-0.4,9.3-1.1s5.5-1.8,7.8-3.4s4-3.6,5.3-6.1c1.3-2.5,2-5.5,2-9c0-3-0.5-5.6-1.5-7.6
		c-1-2.1-2.4-3.8-4.2-5.3s-4-2.7-6.7-3.7s-5.5-1.9-8.7-2.8c-2.5-0.6-4.6-1.2-6.5-1.8c-1.9-0.6-3.4-1.2-4.7-1.9s-2.2-1.4-2.8-2.4
		c-0.6-0.9-1-2-1-3.4c0-2.3,0.9-4.1,2.6-5.4c1.7-1.3,4.4-1.9,7.8-1.9c2,0,3.9,0.3,5.8,0.8s3.7,1.1,5.3,1.8c1.6,0.7,3,1.4,4.2,2.2
		s1.9,1.3,2.4,1.8l0,0l5.6-10.4c-2.9-2-6.3-3.7-10.2-5.1c-3.9-1.4-8.1-2.2-12.8-2.2c-3.3,0-6.4,0.4-9.3,1.3s-5.5,2.2-7.6,3.9
		s-3.9,3.9-5.1,6.5c-1.2,2.6-1.9,5.6-1.9,8.9c0,2.5,0.4,4.7,1.1,6.6s1.9,3.4,3.5,4.8s3.5,2.6,5.8,3.6s5,1.9,8.2,2.8
		c2.6,0.7,4.9,1.3,7,1.9c2.1,0.6,3.9,1.3,5.4,2.1c1.5,0.8,2.6,1.6,3.4,2.6c0.8,1,1.2,2.2,1.2,3.7c0,4.5-3.5,6.8-10.5,6.8
		c-2.5,0-5-0.3-7.4-0.9c-2.4-0.6-4.6-1.4-6.6-2.3s-3.7-1.8-5.1-2.7s-2.5-1.6-3-2.2l0,0l-5.6,11c3.8,2.7,8.1,4.8,13,6.3
		C249.5,219.2,254.4,220,259.3,220z M322.3,219.3l11.4-27.6l11.4,27.6h10.7l26.7-65.6h-13.9l-18.6,51l-8.3-21l11.2-29.9h-11.9
		l-7.4,21.7l-7.4-21.7h-11.8l11,29.9l-8.1,21l-18.7-51h-13.8l26.6,65.6H322.3z M402,219.3v-65.6h-12.8v65.6L402,219.3L402,219.3z
		 M445.4,219.3l25.6-65.6h-13.4L440,203.3l-17.8-49.6h-13.4l25.8,65.6L445.4,219.3L445.4,219.3z M523.5,219.3v-11.2h-32.8V191h27.7
		v-10.4h-27.7v-15.8h32v-11.2h-44.7v65.6L523.5,219.3L523.5,219.3z M580,219.3v-11.2h-33.5v-54.4h-12.8v65.6H580z"/>
	<path class="st1" d="M241.7,276v-16.7h16v-6.4h-16v-10.4h19.2v-6.9h-27.1V276H241.7z M291.9,276v-40.3h-7.8V276H291.9z M326,276
		v-25.8l20.7,25.8h6.4v-40.3h-7.8v26.4l-21-26.5h-6.1V276L326,276L326,276z M383.5,276l3.7-10h14.1l3.7,10h8.3l-15.9-40.3h-6.4
		L375.2,276H383.5z M399.9,260.5h-11.5l5.8-16.3L399.9,260.5z M443.3,276v-25.8L464,276h6.3v-40.3h-7.8v26.4l-21-26.5h-6.1V276
		L443.3,276L443.3,276z M513.2,276.3c1.6,0,3.2-0.2,4.8-0.6s3.2-1,4.7-1.8c1.5-0.8,2.8-1.8,4-2.9c1.2-1.1,2-2.5,2.7-4l0,0l-6.4-3.7
		c-0.5,1.1-1,2-1.8,2.8c-0.7,0.8-1.5,1.4-2.3,1.9c-0.8,0.5-1.7,0.9-2.7,1.1c-0.9,0.2-1.8,0.3-2.7,0.3c-1.7,0-3.2-0.4-4.6-1.1
		c-1.4-0.8-2.6-1.8-3.6-3s-1.8-2.7-2.3-4.3c-0.5-1.6-0.8-3.4-0.8-5.1c0-1.6,0.2-3.2,0.7-4.8c0.5-1.6,1.2-3,2.1-4.3
		c0.9-1.3,2.1-2.3,3.5-3.1c1.4-0.8,3-1.2,4.9-1.2c0.8,0,1.7,0.1,2.6,0.3s1.8,0.5,2.7,1c0.8,0.5,1.7,1.1,2.3,1.9
		c0.7,0.8,1.3,1.8,1.8,2.9l0,0l6-4.1c-1.3-2.6-3.2-4.7-5.8-6.4c-2.6-1.6-5.7-2.5-9.3-2.5c-3.1,0-5.8,0.6-8.2,1.8
		c-2.4,1.2-4.4,2.7-6,4.6c-1.7,1.9-2.9,4-3.8,6.5s-1.3,4.8-1.3,7.3c0,2.6,0.5,5.1,1.4,7.6c0.9,2.5,2.2,4.7,3.9,6.6
		c1.7,2,3.7,3.5,6,4.8C507.8,275.7,510.4,276.3,513.2,276.3z M580.5,276v-6.9h-20.2v-10.5h17v-6.4h-17v-9.7H580v-6.9h-27.5V276
		L580.5,276L580.5,276z"/>
</g>
<g>
	<g>
		<defs>
			<path id="SVGID_2_" d="M207.5,209.1c0.1,33.2-16.7,56.3-42.2,64.5c-24.8,7.9-52.9-1.6-67.7-22.9c-15.1-21.8-14.5-51.1,1.7-71.8
				c1.4-1.8,3-3.6,4.7-5.2c4-4,9.7-4.2,13.4-0.5c3.6,3.5,3.9,9,0.1,13c-6,6.4-9.9,13.6-11.6,22.2c-4.4,22.1,10.7,44.4,33.1,48.9
				c22.5,4.5,45.3-10.7,49.4-33c2.7-14.5-1-27.2-11.3-37.6c-14.8-15.1-29.9-30-44.8-44.9c-1.4-1.4-2.9-2.8-4.2-4.3
				c-3.6-4.2-3.4-9.6,0.2-13c3.8-3.5,9-3.6,13,0.3c9.1,8.8,18.1,17.8,26.9,26.8c9.3,9.6,19.6,18.1,27.7,28.8
				C203.7,190.6,207.4,202.5,207.5,209.1z"/>
		</defs>
		<clipPath id="SVGID_3_">
			<use xlink:href="#SVGID_2_"  style="overflow:visible;"/>
		</clipPath>
	</g>
</g>
<g>
	<g>
		<defs>
			<path id="SVGID_6_" d="M91,114c0.2-33.9,24-60.1,54.1-62.7c32.4-2.7,60.6,18.3,65.9,49.8c3.3,19.5-1.9,37-15.4,51.7
				c-4.4,4.8-10,5.4-14.1,1.7c-4.2-3.8-4.2-9.2,0.4-14.1c21.2-22.6,12-59.3-17.6-68.9c-18.4-6-38.4,1.5-48.7,18
				c-10.1,16.3-7.7,37.6,6,51.5c15.7,15.8,31.5,31.6,47.3,47.3c2.3,2.3,4.3,4.8,4.2,8.2c-0.1,3.8-1.7,6.8-5.4,8.3
				c-4.1,1.6-7.8,0.8-10.9-2.4c-11.4-11.5-22.8-22.8-34.2-34.3c-5.9-5.9-11.9-11.6-17.4-17.9C95.3,139.1,91,125.9,91,114z"/>
		</defs>
		<clipPath id="SVGID_4_">
			<use xlink:href="#SVGID_6_"  style="overflow:visible;"/>
		</clipPath>
	</g>
</g>
<g>
	<g>
		<defs>
			<path id="SVGID_10_" d="M207.5,209.1c0.1,33.2-16.7,56.3-42.2,64.5c-24.8,7.9-52.9-1.6-67.7-22.9c-15.1-21.8-14.5-51.1,1.7-71.8
				c1.4-1.8,3-3.6,4.7-5.2c4-4,9.7-4.2,13.4-0.5c3.6,3.5,3.9,9,0.1,13c-6,6.4-9.9,13.6-11.6,22.2c-4.4,22.1,10.7,44.4,33.1,48.9
				c22.5,4.5,45.3-10.7,49.4-33c2.7-14.5-1-27.2-11.3-37.6c-14.8-15.1-29.9-30-44.8-44.9c-1.4-1.4-2.9-2.8-4.2-4.3
				c-3.6-4.2-3.4-9.6,0.2-13c3.8-3.5,9-3.6,13,0.3c9.1,8.8,18.1,17.8,26.9,26.8c9.3,9.6,19.6,18.1,27.7,28.8
				C203.7,190.6,207.4,202.5,207.5,209.1z"/>
		</defs>
		<clipPath id="SVGID_5_">
			<use xlink:href="#SVGID_10_"  style="overflow:visible;"/>
		</clipPath>
	</g>
</g>
<g>
	<g>
		<defs>
			<path id="SVGID_14_" d="M91,118.2c-0.1-33.2,16.7-56.3,42.2-64.5c24.8-7.9,52.9,1.6,67.7,22.9c15.1,21.8,14.5,51.1-1.7,71.8
				c-1.4,1.8-3,3.6-4.7,5.2c-4,4-9.7,4.2-13.4,0.5c-3.6-3.5-3.9-9-0.1-13c6-6.4,9.9-13.6,11.6-22.2c4.4-22.1-10.7-44.4-33.1-48.9
				c-22.5-4.5-45.3,10.7-49.4,33c-2.7,14.5,1,27.2,11.3,37.6c14.8,15.1,29.9,30,44.8,44.9c1.4,1.4,2.9,2.8,4.2,4.3
				c3.6,4.2,3.4,9.6-0.2,13c-3.8,3.5-9,3.6-13-0.3c-9.1-8.8-18.1-17.8-26.9-26.8c-9.3-9.6-19.6-18.1-27.7-28.8
				C94.8,136.8,91.1,124.8,91,118.2z"/>
		</defs>
		<clipPath id="SVGID_7_">
			<use xlink:href="#SVGID_14_"  style="overflow:visible;"/>
		</clipPath>
	</g>
</g>
<g>
	<g>
		<defs>
			<path id="SVGID_18_" d="M207.5,209.1c0.1,33.2-16.7,56.3-42.2,64.5c-24.8,7.9-52.9-1.6-67.7-22.9c-15.1-21.8-14.5-51.1,1.7-71.8
				c1.4-1.8,3-3.6,4.7-5.2c4-4,9.7-4.2,13.4-0.5c3.6,3.5,3.9,9,0.1,13c-6,6.4-9.9,13.6-11.6,22.2c-4.4,22.1,10.7,44.4,33.1,48.9
				c22.5,4.5,45.3-10.7,49.4-33c2.7-14.5-1-27.2-11.3-37.6c-14.8-15.1-29.9-30-44.8-44.9c-1.4-1.4-2.9-2.8-4.2-4.3
				c-3.6-4.2-3.4-9.6,0.2-13c3.8-3.5,9-3.6,13,0.3c9.1,8.8,18.1,17.8,26.9,26.8c9.3,9.6,19.6,18.1,27.7,28.8
				C203.7,190.6,207.4,202.5,207.5,209.1z"/>
		</defs>
		<clipPath id="SVGID_8_">
			<use xlink:href="#SVGID_18_"  style="overflow:visible;"/>
		</clipPath>
	</g>
</g>
</svg>
